# xmcd CD database file
#
# Track frame offsets:
#	150
#	11017
#	31620
#
# Disc length: 594 seconds
#
# Revision: 1
# Processed by: cddbd v1.5.2PL0 Copyright (c) Steve Scherf et al.
# Submitted via: CDex 1.51
#
DISCID=14025003
DTITLE=John Dog - Property Porn
DYEAR=2006
DGENRE=Unknown
TTITLE0=Three Guys Looking At A Car
TTITLE1=Shadow Of Blue
TTITLE2=Sinead
EXTD=YEAR: 2006
EXTT0=
EXTT1=
EXTT2=
PLAYORDER=
